<svg viewBox="0 0 60 60.02" xmlns="http://www.w3.org/2000/svg">
<style>
  path {
    fill: #000000;
  }
  @media (prefers-color-scheme: dark) {
    path {
      fill: #ffffff;
    }
  }
</style>
<path d="m51.56 33.56h-3.91a7.71 7.71 0 0 0 -3.29.9l-27 15.86a7.52 7.52 0 0 1 -3.28.9h-14.08v7.06a1.77 1.77 0 0 0 1.76 1.72h56.48a1.77 1.77 0 0 0 1.76-1.75v-7.06h-14.12a7.52 7.52 0 0 1 -3.28-.9l-8.08-4.74a1 1 0 0 1 0-1.79l3.84-2.25a3.27 3.27 0 0 1 3 0l3 1.74a7.57 7.57 0 0 0 3.29.9h12.35v-10.59z"/><path d="m51.56 15.88h-3.91a7.71 7.71 0 0 0 -3.29.9l-27 15.87a7.66 7.66 0 0 1 -3.28.9h-14.08v10.59h12.35a7.71 7.71 0 0 0 3.29-.9l27-15.87a7.66 7.66 0 0 1 3.28-.9h14.08v-10.59z"/><path d="m58.24 0h-56.48a1.76 1.76 0 0 0 -1.76 1.76v7.06h14.12a7.66 7.66 0 0 1 3.28.9l8.08 4.75a1 1 0 0 1 0 1.78l-3.84 2.26a3.27 3.27 0 0 1 -3 0l-3-1.75a7.71 7.71 0 0 0 -3.29-.9h-12.35v10.59h12.35a7.57 7.57 0 0 0 3.29-.9l27-15.86a7.52 7.52 0 0 1 3.28-.9h14.08v-7.06a1.76 1.76 0 0 0 -1.76-1.73z"/>
</svg>