<svg viewBox="0 0 950 230" xmlns="http://www.w3.org/2000/svg"><g fill="none" stroke="#77e8b9" stroke-linejoin="round" stroke-miterlimit="10"><path d="m32.1 87.8-15.6 26.9h31.1z"/><path d="m47.6 114.7-15.5-26.9h31z"/><path d="m63.1 87.8-15.5 26.9h31.1z"/><path d="m78.7 114.7-15.6-26.9h31.1z"/><path d="m94.2 87.8-15.5 26.9h31.1z"/><path d="m109.8 114.7-15.6-26.9h31.1z"/><path d="m125.3 87.8-15.5 26.9h31.1z"/><path d="m140.9 114.7-15.6-26.9h31.1z"/><path d="m156.4 87.8-15.5 26.9h31z"/><path d="m171.9 114.7-15.5-26.9h31.1z"/><path d="m187.5 87.8-15.6 26.9h31.1z"/><path d="m203 114.7-15.5-26.9h31.1z"/><path d="m218.6 87.8-15.6 26.9h31.1z"/><path d="m234.1 114.7-15.5-26.9h31.1z"/><path d="m249.7 87.8-15.6 26.9h31.1z"/><path d="m265.2 114.7-15.5-26.9h31z"/><path d="m280.7 87.8-15.5 26.9h31.1z"/><path d="m296.3 114.7-15.6-26.9h31.1z"/><path d="m311.8 87.8-15.5 26.9h31.1zm-279.7 0-15.6 26.9h31.1z"/><path d="m47.6 114.7-15.5-26.9h31z"/><path d="m63.1 87.8-15.5 26.9h31.1z"/><path d="m78.7 114.7-15.6-26.9h31.1z"/><path d="m94.2 87.8-15.5 26.9h31.1z"/><path d="m109.8 114.7-15.6-26.9h31.1z"/><path d="m125.3 87.8-15.5 26.9h31.1z"/><path d="m140.9 114.7-15.6-26.9h31.1z"/><path d="m156.4 87.8-15.5 26.9h31z"/><path d="m171.9 114.7-15.5-26.9h31.1z"/><path d="m187.5 87.8-15.6 26.9h31.1z"/><path d="m203 114.7-15.5-26.9h31.1z"/><path d="m218.6 87.8-15.6 26.9h31.1z"/><path d="m234.1 114.7-15.5-26.9h31.1z"/><path d="m249.7 87.8-15.6 26.9h31.1z"/><path d="m265.2 114.7-15.5-26.9h31z"/><path d="m280.7 87.8-15.5 26.9h31.1z"/><path d="m296.3 114.7-15.6-26.9h31.1z"/><path d="m311.8 87.8-15.5 26.9h31.1zm-233.1-27-15.5 27h31.1z"/><path d="m94.3 87.8-15.6-27h31.1z"/><path d="m109.8 60.8-15.5 27h31z"/><path d="m125.3 87.8-15.5-27h31.1zm15.6-27-15.6 27h31.1z"/><path d="m156.4 87.8-15.5-27h31.1zm15.6-27-15.6 27h31.1z"/><path d="m187.5 87.8-15.5-27h31.1zm15.6-27-15.6 27h31.1z"/><path d="m218.6 87.8-15.5-27h31zm15.5-27-15.5 27h31.1z"/><path d="m249.7 87.8-15.6-27h31.1zm15.5-27-15.5 27h31.1z"/><path d="m280.8 87.8-15.6-27h31.1zm15.5-27-15.5 27h31.1z"/><path d="m311.9 87.8-15.6-27h31.1zm-233.2-27-15.5 27h31.1zm15.6 27-15.6-27h31.1zm15.5-27-15.5 27h31zm15.5 27-15.5-27h31.1zm15.6-27-15.6 27h31.1zm15.5 27-15.5-27h31.1zm15.6-27-15.6 27h31.1zm15.5 27-15.5-27h31.1zm15.6-27-15.6 27h31.1zm15.5 27-15.5-27h31zm15.5-27-15.5 27h31.1zm15.6 27-15.6-27h31.1zm15.5-27-15.5 27h31.1z"/><path d="m280.8 87.8-15.6-27h31.1zm15.5-27-15.5 27h31.1z"/><path d="m311.9 87.8-15.6-27h31.1zm-233.2 134.5-15.6-26.9h31.1zm15.5-26.9-15.5 26.9h31.1z"/><path d="m109.8 222.3-15.6-26.9h31.1z"/><path d="m125.3 195.4-15.5 26.9h31.1zm15.6 26.9-15.6-26.9h31.1zm15.5-26.9-15.5 26.9h31z"/><path d="m171.9 222.3-15.5-26.9h31.1zm77.8-26.9-15.6 26.9h31.1z"/><path d="m265.2 222.3-15.5-26.9h31zm15.5-26.9-15.5 26.9h31.1z"/><path d="m296.3 222.3-15.6-26.9h31.1zm15.5-26.9-15.5 26.9h31.1zm-233.1 26.9-15.6-26.9h31.1zm15.5-26.9-15.5 26.9h31.1z"/><path d="m109.8 222.3-15.6-26.9h31.1z"/><path d="m125.3 195.4-15.5 26.9h31.1zm15.6 26.9-15.6-26.9h31.1zm15.5-26.9-15.5 26.9h31z"/><path d="m171.9 222.3-15.5-26.9h31.1zm77.8-26.9-15.6 26.9h31.1z"/><path d="m265.2 222.3-15.5-26.9h31zm15.5-26.9-15.5 26.9h31.1z"/><path d="m296.3 222.3-15.6-26.9h31.1zm15.5-26.9-15.5 26.9h31.1zm-295.3-26.9-15.5 26.9h31.1z"/><path d="m32.1 195.4-15.6-26.9h31.1zm46.6-26.9-15.5 26.9h31.1z"/><path d="m94.3 195.4-15.6-26.9h31.1z"/><path d="m109.8 168.5-15.5 26.9h31z"/><path d="m125.3 195.4-15.5-26.9h31.1zm15.6-26.9-15.6 26.9h31.1z"/><path d="m156.4 195.4-15.5-26.9h31.1zm15.6-26.9-15.6 26.9h31.1z"/><path d="m187.5 195.4-15.5-26.9h31.1zm62.2 0-15.6-26.9h31.1zm15.5-26.9-15.5 26.9h31.1z"/><path d="m280.8 195.4-15.6-26.9h31.1zm15.5-26.9-15.5 26.9h31.1z"/><path d="m311.9 195.4-15.6-26.9h31.1zm-295.4-26.9-15.5 26.9h31.1z"/><path d="m32.1 195.4-15.6-26.9h31.1zm46.6-26.9-15.5 26.9h31.1z"/><path d="m94.3 195.4-15.6-26.9h31.1z"/><path d="m109.8 168.5-15.5 26.9h31z"/><path d="m125.3 195.4-15.5-26.9h31.1zm15.6-26.9-15.6 26.9h31.1z"/><path d="m156.4 195.4-15.5-26.9h31.1zm15.6-26.9-15.6 26.9h31.1z"/><path d="m187.5 195.4-15.5-26.9h31.1zm62.2 0-15.6-26.9h31.1zm15.5-26.9-15.5 26.9h31.1z"/><path d="m280.8 195.4-15.6-26.9h31.1zm15.5-26.9-15.5 26.9h31.1z"/><path d="m311.9 195.4-15.6-26.9h31.1zm-279.8-53.8-15.6 26.9h31.1z"/><path d="m47.6 168.5-15.5-26.9h31zm31.1 0-15.6-26.9h31.1zm15.5-26.9-15.5 26.9h31.1z"/><path d="m109.8 168.5-15.6-26.9h31.1z"/><path d="m125.3 141.6-15.5 26.9h31.1zm15.6 26.9-15.6-26.9h31.1zm15.5-26.9-15.5 26.9h31z"/><path d="m171.9 168.5-15.5-26.9h31.1zm15.6-26.9-15.6 26.9h31.1z"/><path d="m203 168.5-15.5-26.9h31.1zm15.6-26.9-15.6 26.9h31.1z"/><path d="m234.1 168.5-15.5-26.9h31.1zm15.6-26.9-15.6 26.9h31.1z"/><path d="m265.2 168.5-15.5-26.9h31zm15.5-26.9-15.5 26.9h31.1z"/><path d="m296.3 168.5-15.6-26.9h31.1zm15.5-26.9-15.5 26.9h31.1zm-279.7 0-15.6 26.9h31.1z"/><path d="m47.6 168.5-15.5-26.9h31zm-31.1 0-15.5-26.9h31.1zm62.2 0-15.6-26.9h31.1zm15.5-26.9-15.5 26.9h31.1z"/><path d="m109.8 168.5-15.6-26.9h31.1z"/><path d="m125.3 141.6-15.5 26.9h31.1zm15.6 26.9-15.6-26.9h31.1zm15.5-26.9-15.5 26.9h31z"/><path d="m171.9 168.5-15.5-26.9h31.1zm15.6-26.9-15.6 26.9h31.1z"/><path d="m203 168.5-15.5-26.9h31.1zm15.6-26.9-15.6 26.9h31.1z"/><path d="m234.1 168.5-15.5-26.9h31.1zm15.6-26.9-15.6 26.9h31.1z"/><path d="m265.2 168.5-15.5-26.9h31zm15.5-26.9-15.5 26.9h31.1z"/><path d="m296.3 168.5-15.6-26.9h31.1zm15.5-26.9-15.5 26.9h31.1zm-295.3-26.9-15.5 26.9h31.1zm15.6 26.9-15.6-26.9h31.1zm15.5-26.9-15.5 26.9h31.1zm15.6 26.9-15.6-26.9h31.1zm15.5-26.9-15.5 26.9h31.1z"/><path d="m94.3 141.6-15.6-26.9h31.1z"/><path d="m109.8 114.7-15.5 26.9h31zm15.5 26.9-15.5-26.9h31.1zm15.6-26.9-15.6 26.9h31.1zm15.5 26.9-15.5-26.9h31.1zm15.6-26.9-15.6 26.9h31.1z"/><path d="m187.5 141.6-15.5-26.9h31.1zm15.6-26.9-15.6 26.9h31.1zm15.5 26.9-15.5-26.9h31zm15.5-26.9-15.5 26.9h31.1zm15.6 26.9-15.6-26.9h31.1zm15.5-26.9-15.5 26.9h31.1zm15.6 26.9-15.6-26.9h31.1zm15.5-26.9-15.5 26.9h31.1z"/><path d="m311.9 141.6-15.6-26.9h31.1zm-295.4-26.9-15.5 26.9h31.1zm15.6 26.9-15.6-26.9h31.1zm15.5-26.9-15.5 26.9h31.1zm15.6 26.9-15.6-26.9h31.1zm15.5-26.9-15.5 26.9h31.1z"/><path d="m94.3 141.6-15.6-26.9h31.1z"/><path d="m109.8 114.7-15.5 26.9h31zm15.5 26.9-15.5-26.9h31.1zm15.6-26.9-15.6 26.9h31.1zm15.5 26.9-15.5-26.9h31.1zm15.6-26.9-15.6 26.9h31.1z"/><path d="m187.5 141.6-15.5-26.9h31.1zm15.6-26.9-15.6 26.9h31.1zm15.5 26.9-15.5-26.9h31zm15.5-26.9-15.5 26.9h31.1zm15.6 26.9-15.6-26.9h31.1zm15.5-26.9-15.5 26.9h31.1zm15.6 26.9-15.6-26.9h31.1zm15.5-26.9-15.5 26.9h31.1z"/><path d="m311.9 141.6-15.6-26.9h31.1zm31-53.8-15.5 26.9h31.1z"/><path d="m358.5 114.7-15.6-26.9h31.1z"/><path d="m374 87.8-15.5 26.9h31.1z"/><path d="m389.6 114.7-15.6-26.9h31.1z"/><path d="m405.1 87.8-15.5 26.9h31z"/><path d="m420.6 114.7-15.5-26.9h31.1z"/><path d="m436.2 87.8-15.6 26.9h31.1z"/><path d="m451.7 114.7-15.5-26.9h31.1z"/><path d="m467.3 87.8-15.6 26.9h31.1z"/><path d="m482.8 114.7-15.5-26.9h31.1z"/><path d="m498.4 87.8-15.6 26.9h31.1z"/><path d="m513.9 114.7-15.5-26.9h31z"/><path d="m529.4 87.8-15.5 26.9h31.1z"/><path d="m545 114.7-15.6-26.9h31.1z"/><path d="m560.5 87.8-15.5 26.9h31.1z"/><path d="m576.1 114.7-15.6-26.9h31.1z"/><path d="m591.6 87.8-15.5 26.9h31.1z"/><path d="m607.2 114.7-15.6-26.9h31.1z"/><path d="m622.7 87.8-15.5 26.9h31zm-279.8 0-15.5 26.9h31.1z"/><path d="m358.5 114.7-15.6-26.9h31.1z"/><path d="m374 87.8-15.5 26.9h31.1z"/><path d="m389.6 114.7-15.6-26.9h31.1z"/><path d="m405.1 87.8-15.5 26.9h31z"/><path d="m420.6 114.7-15.5-26.9h31.1z"/><path d="m436.2 87.8-15.6 26.9h31.1z"/><path d="m451.7 114.7-15.5-26.9h31.1z"/><path d="m467.3 87.8-15.6 26.9h31.1z"/><path d="m482.8 114.7-15.5-26.9h31.1z"/><path d="m498.4 87.8-15.6 26.9h31.1z"/><path d="m513.9 114.7-15.5-26.9h31z"/><path d="m529.4 87.8-15.5 26.9h31.1z"/><path d="m545 114.7-15.6-26.9h31.1z"/><path d="m560.5 87.8-15.5 26.9h31.1z"/><path d="m576.1 114.7-15.6-26.9h31.1z"/><path d="m591.6 87.8-15.5 26.9h31.1z"/><path d="m607.2 114.7-15.6-26.9h31.1z"/><path d="m622.7 87.8-15.5 26.9h31zm-295.3-27-15.5 27h31.1z"/><path d="m343 87.8-15.6-27h31.1zm15.5-27-15.5 27h31z"/><path d="m374 87.8-15.5-27h31.1zm15.6-27-15.6 27h31.1z"/><path d="m405.1 87.8-15.5-27h31.1z"/><path d="m420.7 60.8-15.6 27h31.1z"/><path d="m436.2 87.8-15.5-27h31.1zm15.6-27-15.6 27h31.1z"/><path d="m467.3 87.8-15.5-27h31zm15.5-27-15.5 27h31.1z"/><path d="m498.4 87.8-15.6-27h31.1zm15.5-27-15.5 27h31.1z"/><path d="m529.5 87.8-15.6-27h31.1zm15.5-27-15.5 27h31.1z"/><path d="m560.6 87.8-15.6-27h31.1zm15.5-27-15.5 27h31z"/><path d="m591.6 87.8-15.5-27h31.1zm15.6-27-15.6 27h31.1z"/><path d="m622.7 87.8-15.5-27h31.1zm-295.3-27-15.5 27h31.1z"/><path d="m343 87.8-15.6-27h31.1zm15.5-27-15.5 27h31z"/><path d="m374 87.8-15.5-27h31.1zm15.6-27-15.6 27h31.1z"/><path d="m405.1 87.8-15.5-27h31.1z"/><path d="m420.7 60.8-15.6 27h31.1z"/><path d="m436.2 87.8-15.5-27h31.1zm15.6-27-15.6 27h31.1z"/><path d="m467.3 87.8-15.5-27h31zm15.5-27-15.5 27h31.1z"/><path d="m498.4 87.8-15.6-27h31.1zm15.5-27-15.5 27h31.1z"/><path d="m529.5 87.8-15.6-27h31.1zm15.5-27-15.5 27h31.1z"/><path d="m560.6 87.8-15.6-27h31.1zm15.5-27-15.5 27h31z"/><path d="m591.6 87.8-15.5-27h31.1zm15.6-27-15.6 27h31.1z"/><path d="m622.7 87.8-15.5-27h31.1zm-186.5-53.9-15.6 27m15.6-27-15.6 27h31.1z"/><path d="m451.7 60.9-15.5-27h31.1zm15.6-27-15.6 27h31.1z"/><path d="m482.8 60.9-15.5-27h31.1z"/><path d="m498.4 33.9-15.6 27h31.1z"/><path d="m513.9 60.9-15.5-27h31zm15.5-27-15.5 27h31.1z"/><path d="m545 60.9-15.6-27h31.1zm15.5-27-15.5 27h31.1z"/><path d="m576.1 60.9-15.6-27h31.1zm15.5-27-15.5 27h31.1z"/><path d="m607.2 60.9-15.6-27h31.1zm15.5-27-15.5 27h31zm-295.3 80.8-15.5-26.9h31.1zm108.8-80.8-15.6 27h31.1z"/><path d="m451.7 60.9-15.5-27h31.1zm15.6-27-15.6 27h31.1z"/><path d="m482.8 60.9-15.5-27h31.1z"/><path d="m498.4 33.9-15.6 27h31.1z"/><path d="m513.9 60.9-15.5-27h31zm15.5-27-15.5 27h31.1z"/><path d="m545 60.9-15.6-27h31.1zm15.5-27-15.5 27h31.1z"/><path d="m576.1 60.9-15.6-27h31.1zm15.5-27-15.5 27h31.1z"/><path d="m607.2 60.9-15.6-27h31.1zm15.5-27-15.5 27h31zm-170.9-26.9-15.6 26.9m15.6-26.9-15.6 26.9h31.1z"/><path d="m467.3 33.9-15.5-26.9h31zm15.5-26.9-15.5 26.9h31.1z"/><path d="m498.4 33.9-15.6-26.9h31.1zm15.5-26.9-15.5 26.9h31.1z"/><path d="m529.5 33.9-15.6-26.9h31.1zm15.5-26.9-15.5 26.9h31.1z"/><path d="m560.6 33.9-15.6-26.9h31.1zm15.5-26.9-15.5 26.9h31z"/><path d="m591.6 33.9-15.5-26.9h31.1zm15.6-26.9-15.6 26.9h31.1z"/><path d="m622.7 33.9-15.5-26.9h31.1zm-170.9-26.9-15.6 26.9h31.1z"/><path d="m467.3 33.9-15.5-26.9h31zm15.5-26.9-15.5 26.9h31.1z"/><path d="m498.4 33.9-15.6-26.9h31.1zm15.5-26.9-15.5 26.9h31.1z"/><path d="m529.5 33.9-15.6-26.9h31.1zm15.5-26.9-15.5 26.9h31.1z"/><path d="m560.6 33.9-15.6-26.9h31.1zm15.5-26.9-15.5 26.9h31z"/><path d="m591.6 33.9-15.5-26.9h31.1zm15.6-26.9-15.6 26.9h31.1z"/><path d="m622.7 33.9-15.5-26.9h31.1zm-279.8 161.5-15.5 26.9h31.1z"/><path d="m358.5 222.3-15.6-26.9h31.1zm15.5-26.9-15.5 26.9h31.1z"/><path d="m389.6 222.3-15.6-26.9h31.1zm15.5-26.9-15.5 26.9h31z"/><path d="m420.6 222.3-15.5-26.9h31.1z"/><path d="m436.2 195.4-15.6 26.9h31.1z"/><path d="m451.7 222.3-15.5-26.9h31.1zm-108.8-26.9-15.5 26.9h31.1z"/><path d="m358.5 222.3-15.6-26.9h31.1zm15.5-26.9-15.5 26.9h31.1z"/><path d="m389.6 222.3-15.6-26.9h31.1zm15.5-26.9-15.5 26.9h31z"/><path d="m420.6 222.3-15.5-26.9h31.1z"/><path d="m436.2 195.4-15.6 26.9h31.1z"/><path d="m451.7 222.3-15.5-26.9h31.1zm-124.3-53.8-15.5 26.9h31.1z"/><path d="m343 195.4-15.6-26.9h31.1zm15.5-26.9-15.5 26.9h31z"/><path d="m374 195.4-15.5-26.9h31.1zm15.6-26.9-15.6 26.9h31.1z"/><path d="m405.1 195.4-15.5-26.9h31.1z"/><path d="m420.7 168.5-15.6 26.9h31.1z"/><path d="m436.2 195.4-15.5-26.9h31.1zm15.6-26.9-15.6 26.9h31.1z"/><path d="m467.3 195.4-15.5-26.9h31zm-139.9-26.9-15.5 26.9h31.1z"/><path d="m343 195.4-15.6-26.9h31.1zm15.5-26.9-15.5 26.9h31z"/><path d="m374 195.4-15.5-26.9h31.1zm15.6-26.9-15.6 26.9h31.1z"/><path d="m405.1 195.4-15.5-26.9h31.1z"/><path d="m420.7 168.5-15.6 26.9h31.1z"/><path d="m436.2 195.4-15.5-26.9h31.1zm15.6-26.9-15.6 26.9h31.1z"/><path d="m467.3 195.4-15.5-26.9h31zm-124.4-53.8-15.5 26.9h31.1zm15.6 26.9-15.6-26.9h31.1zm15.5-26.9-15.5 26.9h31.1zm15.6 26.9-15.6-26.9h31.1zm15.5-26.9-15.5 26.9h31zm15.5 26.9-15.5-26.9h31.1z"/><path d="m436.2 141.6-15.6 26.9h31.1z"/><path d="m451.7 168.5-15.5-26.9h31.1zm15.6-26.9-15.6 26.9h31.1z"/><path d="m482.8 168.5-15.5-26.9h31.1z"/><path d="m498.4 141.6-15.6 26.9h31.1z"/><path d="m513.9 168.5-15.5-26.9h31zm15.5-26.9-15.5 26.9h31.1z"/><path d="m545 168.5-15.6-26.9h31.1zm15.5-26.9-15.5 26.9h31.1z"/><path d="m576.1 168.5-15.6-26.9h31.1zm15.5-26.9-15.5 26.9h31.1z"/><path d="m607.2 168.5-15.6-26.9h31.1zm15.5-26.9-15.5 26.9h31zm-279.8 0-15.5 26.9h31.1z"/><path d="m358.5 168.5-15.6-26.9h31.1z"/><path d="m327.4 168.5-15.5-26.9h31.1zm0 53.8-15.5-26.9h31.1zm46.6-80.7-15.5 26.9h31.1zm15.6 26.9-15.6-26.9h31.1zm15.5-26.9-15.5 26.9h31zm15.5 26.9-15.5-26.9h31.1z"/><path d="m436.2 141.6-15.6 26.9h31.1z"/><path d="m451.7 168.5-15.5-26.9h31.1zm15.6-26.9-15.6 26.9h31.1z"/><path d="m482.8 168.5-15.5-26.9h31.1z"/><path d="m498.4 141.6-15.6 26.9h31.1z"/><path d="m513.9 168.5-15.5-26.9h31zm15.5-26.9-15.5 26.9h31.1z"/><path d="m545 168.5-15.6-26.9h31.1zm15.5-26.9-15.5 26.9h31.1z"/><path d="m576.1 168.5-15.6-26.9h31.1zm15.5-26.9-15.5 26.9h31.1z"/><path d="m607.2 168.5-15.6-26.9h31.1zm15.5-26.9-15.5 26.9h31zm-295.3-26.9-15.5 26.9h31.1zm15.6 26.9-15.6-26.9h31.1zm15.5-26.9-15.5 26.9h31zm15.5 26.9-15.5-26.9h31.1zm15.6-26.9-15.6 26.9h31.1zm15.5 26.9-15.5-26.9h31.1z"/><path d="m420.7 114.7-15.6 26.9h31.1zm15.5 26.9-15.5-26.9h31.1zm15.6-26.9-15.6 26.9h31.1zm15.5 26.9-15.5-26.9h31zm15.5-26.9-15.5 26.9h31.1z"/><path d="m498.4 141.6-15.6-26.9h31.1zm15.5-26.9-15.5 26.9h31.1zm15.6 26.9-15.6-26.9h31.1zm15.5-26.9-15.5 26.9h31.1z"/><path d="m560.6 141.6-15.6-26.9h31.1zm15.5-26.9-15.5 26.9h31zm15.5 26.9-15.5-26.9h31.1zm15.6-26.9-15.6 26.9h31.1zm15.5 26.9-15.5-26.9h31.1zm-295.3-26.9-15.5 26.9h31.1zm15.6 26.9-15.6-26.9h31.1zm15.5-26.9-15.5 26.9h31zm15.5 26.9-15.5-26.9h31.1zm15.6-26.9-15.6 26.9h31.1zm15.5 26.9-15.5-26.9h31.1z"/><path d="m420.7 114.7-15.6 26.9h31.1zm15.5 26.9-15.5-26.9h31.1zm15.6-26.9-15.6 26.9h31.1zm15.5 26.9-15.5-26.9h31zm15.5-26.9-15.5 26.9h31.1z"/><path d="m498.4 141.6-15.6-26.9h31.1zm15.5-26.9-15.5 26.9h31.1zm15.6 26.9-15.6-26.9h31.1zm15.5-26.9-15.5 26.9h31.1z"/><path d="m560.6 141.6-15.6-26.9h31.1zm15.5-26.9-15.5 26.9h31zm15.5 26.9-15.5-26.9h31.1zm15.6-26.9-15.6 26.9h31.1zm15.5 26.9-15.5-26.9h31.1zm31.1-53.8-15.6 26.9h31.1z"/><path d="m669.3 114.7-15.5-26.9h31.1z"/><path d="m684.9 87.8-15.6 26.9h31.1z"/><path d="m700.4 114.7-15.5-26.9h31.1z"/><path d="m716 87.8-15.6 26.9h31.1z"/><path d="m731.5 114.7-15.5-26.9h31z"/><path d="m747 87.8-15.5 26.9h31.1z"/><path d="m762.6 114.7-15.6-26.9h31.1z"/><path d="m778.1 87.8-15.5 26.9h31.1z"/><path d="m793.7 114.7-15.6-26.9h31.1z"/><path d="m809.2 87.8-15.5 26.9h31.1z"/><path d="m824.8 114.7-15.6-26.9h31.1z"/><path d="m840.3 87.8-15.5 26.9h31z"/><path d="m855.8 114.7-15.5-26.9h31.1z"/><path d="m871.4 87.8-15.6 26.9h31.1z"/><path d="m886.9 114.7-15.5-26.9h31.1zm-233.1-26.9-15.6 26.9h31.1z"/><path d="m669.3 114.7-15.5-26.9h31.1z"/><path d="m684.9 87.8-15.6 26.9h31.1z"/><path d="m700.4 114.7-15.5-26.9h31.1z"/><path d="m716 87.8-15.6 26.9h31.1z"/><path d="m731.5 114.7-15.5-26.9h31z"/><path d="m747 87.8-15.5 26.9h31.1z"/><path d="m762.6 114.7-15.6-26.9h31.1z"/><path d="m778.1 87.8-15.5 26.9h31.1z"/><path d="m793.7 114.7-15.6-26.9h31.1z"/><path d="m809.2 87.8-15.5 26.9h31.1z"/><path d="m824.8 114.7-15.6-26.9h31.1z"/><path d="m840.3 87.8-15.5 26.9h31z"/><path d="m855.8 114.7-15.5-26.9h31.1z"/><path d="m871.4 87.8-15.6 26.9h31.1z"/><path d="m886.9 114.7-15.5-26.9h31.1zm-248.6-53.9-15.6 27h31.1z"/><path d="m653.8 87.8-15.5-27h31.1zm15.6-27-15.6 27h31.1z"/><path d="m684.9 87.8-15.5-27h31zm15.5-27-15.5 27h31.1z"/><path d="m716 87.8-15.6-27h31.1zm15.5-27-15.5 27h31.1z"/><path d="m747.1 87.8-15.6-27h31.1zm15.5-27-15.5 27h31.1z"/><path d="m778.2 87.8-15.6-27h31.1zm15.5-27-15.5 27h31.1z"/><path d="m809.3 87.8-15.6-27h31.1zm15.5-27-15.5 27h31z"/><path d="m840.3 87.8-15.5-27h31.1zm15.6-27-15.6 27h31.1z"/><path d="m871.4 87.8-15.5-27h31.1zm15.6-27-15.6 27h31.1z"/><path d="m902.5 87.8-15.5-27h31.1zm15.6-27-15.6 27m-264.2-27-15.6 27h31.1z"/><path d="m653.8 87.8-15.5-27h31.1zm15.6-27-15.6 27h31.1z"/><path d="m684.9 87.8-15.5-27h31zm15.5-27-15.5 27h31.1z"/><path d="m716 87.8-15.6-27h31.1zm15.5-27-15.5 27h31.1z"/><path d="m747.1 87.8-15.6-27h31.1zm15.5-27-15.5 27h31.1z"/><path d="m778.2 87.8-15.6-27h31.1zm15.5-27-15.5 27h31.1z"/><path d="m809.3 87.8-15.6-27h31.1zm15.5-27-15.5 27h31z"/><path d="m840.3 87.8-15.5-27h31.1zm15.6-27-15.6 27h31.1z"/><path d="m871.4 87.8-15.5-27h31.1zm15.6-27-15.6 27h31.1z"/><path d="m902.5 87.8-15.5-27h31.1zm15.6-27-15.6 27m-248.7-53.9-15.6 27h31.1z"/><path d="m669.3 60.9-15.5-27h31.1zm15.6-27-15.6 27h31.1z"/><path d="m700.4 60.9-15.5-27h31.1zm15.6-27-15.6 27h31.1z"/><path d="m731.5 60.9-15.5-27h31zm15.5-27-15.5 27h31.1z"/><path d="m762.6 60.9-15.6-27h31.1zm15.5-27-15.5 27h31.1z"/><path d="m793.7 60.9-15.6-27h31.1zm15.5-27-15.5 27h31.1z"/><path d="m824.8 60.9-15.6-27h31.1zm15.5-27-15.5 27h31z"/><path d="m855.8 60.9-15.5-27h31.1zm15.6-27-15.6 27h31.1z"/><path d="m886.9 60.9-15.5-27h31.1zm15.6-27-15.6 27h31.1z"/><path d="m918 60.9-15.5-27h31.1zm15.6-27-15.6 27m-264.2-27-15.6 27h31.1z"/><path d="m669.3 60.9-15.5-27h31.1zm-31 0-15.6-27h31.1zm0 53.8-15.6-26.9h31.1zm46.6-80.8-15.6 27h31.1z"/><path d="m700.4 60.9-15.5-27h31.1zm15.6-27-15.6 27h31.1z"/><path d="m731.5 60.9-15.5-27h31zm15.5-27-15.5 27h31.1z"/><path d="m762.6 60.9-15.6-27h31.1zm15.5-27-15.5 27h31.1z"/><path d="m793.7 60.9-15.6-27h31.1zm15.5-27-15.5 27h31.1z"/><path d="m824.8 60.9-15.6-27h31.1zm15.5-27-15.5 27h31z"/><path d="m855.8 60.9-15.5-27h31.1zm15.6-27-15.6 27h31.1z"/><path d="m886.9 60.9-15.5-27h31.1zm15.6-27-15.6 27h31.1z"/><path d="m918 60.9-15.5-27h31.1zm15.6-27-15.6 27m-279.7-53.9-15.6 26.9h31.1z"/><path d="m653.8 33.9-15.5-26.9h31.1zm15.6-26.9-15.6 26.9h31.1z"/><path d="m684.9 33.9-15.5-26.9h31zm15.5-26.9-15.5 26.9h31.1z"/><path d="m716 33.9-15.6-26.9h31.1zm15.5-26.9-15.5 26.9h31.1z"/><path d="m747.1 33.9-15.6-26.9h31.1zm15.5-26.9-15.5 26.9h31.1z"/><path d="m778.2 33.9-15.6-26.9h31.1zm15.5-26.9-15.5 26.9h31.1z"/><path d="m809.3 33.9-15.6-26.9h31.1z"/><path d="m824.8 7-15.5 26.9h31z"/><path d="m840.3 33.9-15.5-26.9h31.1zm15.6-26.9-15.6 26.9h31.1z"/><path d="m871.4 33.9-15.5-26.9h31.1zm15.6-26.9-15.6 26.9h31.1z"/><path d="m902.5 33.9-15.5-26.9h31.1zm15.6-26.9-15.6 26.9h31.1z"/><path d="m933.6 33.9-15.5-26.9h31zm-295.3-26.9-15.6 26.9h31.1z"/><path d="m653.8 33.9-15.5-26.9h31.1zm15.6-26.9-15.6 26.9h31.1z"/><path d="m684.9 33.9-15.5-26.9h31zm15.5-26.9-15.5 26.9h31.1z"/><path d="m716 33.9-15.6-26.9h31.1zm15.5-26.9-15.5 26.9h31.1z"/><path d="m747.1 33.9-15.6-26.9h31.1zm15.5-26.9-15.5 26.9h31.1z"/><path d="m778.2 33.9-15.6-26.9h31.1zm15.5-26.9-15.5 26.9h31.1z"/><path d="m809.3 33.9-15.6-26.9h31.1z"/><path d="m824.8 7-15.5 26.9h31z"/><path d="m840.3 33.9-15.5-26.9h31.1zm15.6-26.9-15.6 26.9h31.1z"/><path d="m871.4 33.9-15.5-26.9h31.1zm15.6-26.9-15.6 26.9h31.1z"/><path d="m902.5 33.9-15.5-26.9h31.1zm15.6-26.9-15.6 26.9h31.1z"/><path d="m933.6 33.9-15.5-26.9h31zm-279.8 107.7-15.6 26.9h31.1z"/><path d="m669.3 168.5-15.5-26.9h31.1zm15.6-26.9-15.6 26.9h31.1z"/><path d="m700.4 168.5-15.5-26.9h31.1zm15.6-26.9-15.6 26.9h31.1z"/><path d="m731.5 168.5-15.5-26.9h31zm15.5-26.9-15.5 26.9h31.1z"/><path d="m762.6 168.5-15.6-26.9h31.1zm15.5-26.9-15.5 26.9h31.1z"/><path d="m793.7 168.5-15.6-26.9h31.1zm15.5-26.9-15.5 26.9h31.1z"/><path d="m824.8 168.5-15.6-26.9h31.1zm-171-26.9-15.6 26.9h31.1z"/><path d="m669.3 168.5-15.5-26.9h31.1zm-31 0-15.6-26.9h31.1zm46.6-26.9-15.6 26.9h31.1z"/><path d="m700.4 168.5-15.5-26.9h31.1zm15.6-26.9-15.6 26.9h31.1z"/><path d="m731.5 168.5-15.5-26.9h31zm15.5-26.9-15.5 26.9h31.1z"/><path d="m762.6 168.5-15.6-26.9h31.1zm15.5-26.9-15.5 26.9h31.1z"/><path d="m793.7 168.5-15.6-26.9h31.1zm15.5-26.9-15.5 26.9h31.1z"/><path d="m824.8 168.5-15.6-26.9h31.1zm-186.5-53.8-15.6 26.9h31.1zm15.5 26.9-15.5-26.9h31.1zm15.6-26.9-15.6 26.9h31.1zm15.5 26.9-15.5-26.9h31zm15.5-26.9-15.5 26.9h31.1zm15.6 26.9-15.6-26.9h31.1zm15.5-26.9-15.5 26.9h31.1zm15.6 26.9-15.6-26.9h31.1zm15.5-26.9-15.5 26.9h31.1zm15.6 26.9-15.6-26.9h31.1z"/><path d="m793.7 114.7-15.5 26.9h31.1z"/><path d="m809.3 141.6-15.6-26.9h31.1zm15.5-26.9-15.5 26.9h31zm15.5 26.9-15.5-26.9h31.1zm-202-26.9-15.6 26.9h31.1zm15.5 26.9-15.5-26.9h31.1zm15.6-26.9-15.6 26.9h31.1zm15.5 26.9-15.5-26.9h31zm15.5-26.9-15.5 26.9h31.1zm15.6 26.9-15.6-26.9h31.1zm15.5-26.9-15.5 26.9h31.1zm15.6 26.9-15.6-26.9h31.1zm15.5-26.9-15.5 26.9h31.1z"/><path d="m778.2 141.6-15.6-26.9h31.1zm15.5-26.9-15.5 26.9h31.1z"/><path d="m809.3 141.6-15.6-26.9h31.1zm15.5-26.9-15.5 26.9h31zm15.5 26.9-15.5-26.9h31.1z"/></g></svg>