<svg width="60" height="60" xmlns="http://www.w3.org/2000/svg">
  <path d="M52.5 48.75A3.735 3.735 0 0 0 48.75 45 3.735 3.735 0 0 0 45 48.75a3.735 3.735 0 0 0 3.75 3.75 3.735 3.735 0 0 0 3.75-3.75zm-15 0A3.735 3.735 0 0 0 33.75 45 3.735 3.735 0 0 0 30 48.75a3.735 3.735 0 0 0 3.75 3.75 3.735 3.735 0 0 0 3.75-3.75zm21.875-15.694a9.217 9.217 0 0 0-3.125-.556H3.75a9.217 9.217 0 0 0-3.125.556L5.069 3.194C5.278 1.39 6.875 0 8.75 0H25v7.64h-9.375c-.486 0-.972.277-1.181.762-.139.487-.069 1.042.278 1.39L30 25 45.278 9.791c.347-.347.417-.902.277-1.389a1.283 1.283 0 0 0-1.18-.763H35V0h16.25c1.875 0 3.403 1.39 3.681 3.194l4.444 29.862zM60 41.25v15A3.734 3.734 0 0 1 56.25 60H3.75A3.734 3.734 0 0 1 0 56.25v-15a3.734 3.734 0 0 1 3.75-3.75h52.5A3.734 3.734 0 0 1 60 41.25z" fill="#D8C6A6" fill-rule="evenodd"/>
</svg>
