<svg width="1024" height="286" xmlns="http://www.w3.org/2000/svg">
  <g stroke="#D8C6A6" fill="none">
    <path d="M509.303-289.022c-3.909 9.44-3.648 18.618-4.43 27.795-4.43 46.938-7.816 94.138-13.288 140.813-3.648 32.778-9.64 65.556-14.852 98.071a2727.868 2727.868 0 0 1-10.943 66.605c-1.303 7.604-3.127 15.209-5.732 22.55-3.648 9.965-11.986 14.947-21.105 14.423-9.12-.524-16.676-6.556-19.02-16.782-1.825-8.13-3.127-16.782-3.127-25.173 0-66.08-1.043-132.422 5.21-198.502 3.127-33.04 6.515-65.818 9.38-98.858.261-4.196 0-8.129 0-13.898-8.076-1.573-15.372.787-22.668 2.098-29.442 5.769-58.885 11.8-88.588 17.307-10.162 1.835-20.845 2.36-31.267 2.884-4.169.262-8.338-.262-12.507-1.311-8.077-2.098-13.549-7.342-15.372-15.733-1.564-8.654 2.084-15.471 9.119-19.667 6.514-3.933 13.81-6.818 21.105-8.916 42.731-13.11 85.723-25.96 128.714-38.808 5.993-1.836 11.986-3.671 19.281-5.77 1.564-10.488 3.388-20.715 4.43-31.204 5.993-51.657 11.464-103.577 17.718-155.235 3.387-28.582 7.556-57.164 16.154-84.96 1.824-6.03 3.908-12.062 7.296-17.306 5.732-8.916 17.717-8.392 22.407.786 2.866 5.507 4.43 11.8 4.69 18.094a1371.028 1371.028 0 0 1 3.909 65.293c1.302 48.51.781 97.284-2.606 145.795-.782 11.8 0 23.862 0 37.236 3.908-.263 7.817-.263 11.465-1.05 171.184-41.168 342.89-78.141 514.857-113.541 91.194-18.88 182.91-33.827 275.407-45.102 57.062-7.08 113.602-15.472 170.664-22.29 79.208-9.44 158.417-18.617 237.887-26.746 36.217-3.671 72.695-4.72 108.651 2.36 6.254 1.311 12.507 2.622 17.979 5.244 16.415 7.867 18.76 26.485 4.69 37.76-5.993 4.72-13.028 8.13-20.063 11.014-22.147 9.177-45.337 14.684-68.787 18.355-46.379 7.08-92.757 13.374-139.136 20.454-69.048 10.488-138.355 21.24-207.402 32.253-146.432 23.338-292.865 47.2-439.557 70.275-152.686 23.862-305.11 49.822-457.014 79.453-4.69 1.05-9.12 2.623-13.55 3.934zm1154.42-90.167c-10.928-3.641-19.253-1.82-27.318.52-36.163 10.142-68.424 27.825-95.22 54.61-5.985 5.982-10.928 12.743-15.61 19.765-7.806 11.962-7.025 23.924 1.56 35.107 5.724 7.02 11.708 14.042 18.732 19.503 14.83 11.703 30.18 22.885 45.79 33.027 16.39 10.662 33.82 19.764 50.472 29.646 19.772 11.702 40.325 22.624 59.317 35.367 18.993 12.742 37.464 27.045 54.635 42.128 11.968 10.402 22.635 22.885 32.261 35.627 23.415 31.986 26.017 66.833 9.886 102.98-7.805 17.424-19.252 32.247-32.52 46.03-20.814 21.844-44.489 40.308-69.985 56.43-83.514 52.791-174.051 85.038-272.394 95.96-74.928 8.321-149.856 17.423-225.564 19.244-61.4 1.56-123.059 1.82-184.458 1.56-34.342-.26-68.164-5.461-100.945-16.123-8.585-2.86-17.17-5.721-25.496-9.622-6.244-2.86-12.488-6.762-17.431-11.442-19.513-18.204-16.13-47.33 7.285-60.072 6.504-3.641 14.309-6.242 21.593-7.282 33.302-4.42 66.343-9.882 99.904-11.442 122.278-5.721 243.776-17.423 365.013-34.847 41.367-5.981 82.473-14.563 123.58-22.624 36.943-7.282 73.887-14.823 110.83-23.145 31.48-7.021 61.66-18.724 90.018-33.807 11.707-6.24 22.894-13.522 32.78-22.104 18.212-15.863 18.993-26.265 3.903-44.469-8.065-9.622-16.91-18.724-26.537-26.525-15.87-12.483-32.26-24.445-49.171-35.627-22.375-14.563-45.27-27.826-67.904-41.348-26.276-15.863-52.033-32.767-74.928-53.57-10.146-9.363-20.292-19.505-28.358-30.687-25.236-34.587-25.496-71.774-1.56-107.401 4.943-7.542 10.666-14.823 17.17-21.064 41.887-39.788 91.319-63.713 148.555-70.734 10.147-1.3 21.074-.26 30.96 2.34 29.139 7.281 44.228 33.547 37.464 62.672-3.122 13.783-9.366 26.266-16.65 38.228-19.773 31.986-46.31 57.471-75.97 80.356-4.942 3.9-10.666 6.761-16.39 9.102-8.585 3.38-17.691-.52-21.333-8.062-3.382-7.021-2.082-15.863 4.943-20.544 22.634-15.083 37.984-36.927 54.114-57.731 8.066-10.402 14.05-22.365 20.293-34.067 2.862-4.681 3.122-9.882 4.683-15.863zM11.666 183.822c-36.423.52-72.847.26-108.75-6.241-12.227-2.34-24.715-5.461-36.163-10.142-8.325-3.12-15.61-8.842-22.634-14.563-6.504-5.461-10.147-13.263-11.708-21.844-2.341-13.523 5.464-25.485 18.992-28.086 5.464-1.04 11.188-.78 16.651-1.04 54.375-3.12 109.01-5.461 162.604-15.863C101.945 72.26 168.807 46.255 230.206 7.247c15.09-9.622 28.879-22.104 42.147-34.327 8.066-7.541 14.57-16.903 20.293-26.525 13.009-22.104 11.188-39.788-4.683-60.072-9.105-11.702-20.293-21.584-33.04-28.605-15.09-8.582-30.7-16.644-46.83-23.405-27.838-11.702-56.977-19.504-86.376-25.225-37.724-7.541-75.708-13.783-113.432-21.064-17.692-3.38-35.383-8.062-52.814-13.003-13.529-3.9-26.017-10.402-37.204-18.723-27.057-20.024-38.244-47.07-35.643-80.356 1.301-16.904 5.724-33.287 13.79-48.11 10.146-18.203 20.552-36.667 32.52-53.57 39.545-54.871 87.416-101.68 141.79-141.729 24.716-18.203 51.253-33.806 80.132-45.509 18.211-7.28 37.204-12.482 56.716-13.782 61.14-3.901 105.367 32.766 112.912 93.358 1.04 7.542 1.301 15.343 1.301 22.885 0 32.246-5.464 63.972-13.268 95.179-3.643 14.302-9.627 27.825-18.993 39.267-6.244 7.802-13.268 14.563-22.894 17.944-14.57 5.201-27.318-2.6-28.619-17.684-.52-4.68.26-9.882 1.041-14.562 5.724-35.367 7.285-70.995 7.545-106.622 0-11.182-.78-22.364-3.382-33.286-3.643-15.863-12.228-22.625-28.358-22.625-9.626 0-19.513 1.3-28.879 3.641-17.691 4.16-34.342 11.962-49.952 21.324C69.424-487.37 14.53-434.32-28.659-369.307c-4.943 7.541-9.106 15.603-13.268 23.924a81.42 81.42 0 0 0-6.244 15.604c-5.724 20.023-1.822 29.125 17.43 36.147 12.489 4.42 25.497 7.801 38.505 10.142 35.123 5.98 70.505 11.182 105.628 16.903 36.683 5.981 72.846 13.783 108.229 24.705 26.017 8.062 51.253 18.724 74.668 32.506 22.374 13.263 42.407 29.646 58.537 50.19 33.562 42.389 41.367 88.938 21.854 139.648-9.106 23.665-22.114 45.249-38.505 64.493-47.61 56.17-105.367 97.519-175.352 121.184-29.398 9.882-59.578 15.343-90.537 16.123-20.293.52-40.586 1.04-60.62 1.56zM720.36-203.394c-9.106 5.46-11.708 13.002-14.83 19.763-8.325 17.944-13.008 36.928-15.35 56.432a552.354 552.354 0 0 0-3.902 58.511c-.52 25.745.52 51.75.78 77.496 0 6.24 0 12.482-1.04 18.723-1.041 6.762-6.765 11.182-13.009 11.703-6.244.52-13.008-3.381-15.09-9.102-1.3-3.901-2.08-8.062-2.08-12.223-1.562-46.809-3.383-93.358-4.684-140.167-.52-17.424-.26-34.847 0-52.27.26-8.322-1.04-16.644 3.643-25.486 3.642-.52 7.545-1.04 12.228-1.56 1.04-1.3 2.341-2.86 3.382-4.681 3.902-6.501 7.284-13.783 12.228-19.504 5.723-6.761 12.227-13.523 19.772-18.464 16.65-10.662 36.684-7.541 48.911 7.802 5.984 7.281 9.887 16.643 13.79 25.485 2.6 5.981 4.162 12.743 6.764 22.104 3.902-8.061 6.504-13.782 9.366-18.983 6.764-12.223 12.748-24.965 20.553-36.408 5.463-8.061 12.227-15.343 20.032-21.324 19.513-15.603 43.708-13.002 59.579 6.241 5.983 7.542 11.187 16.384 14.049 25.486 4.943 15.083 9.105 30.946 11.707 46.549 5.724 35.107 8.065 70.734 7.285 106.36-.78 39.789 0 79.577 5.723 119.104 1.041 7.022 1.821 13.783 1.821 20.804-.26 16.904-12.748 24.965-28.618 18.984-10.406-3.9-17.431-11.182-23.155-20.284-6.244-10.402-9.886-21.584-11.707-33.286-8.846-51.75-15.35-103.5-15.61-156.031 0-22.365-1.04-44.73-1.821-67.094-.26-3.9 1.04-8.581-4.683-11.182-6.504 4.421-9.106 11.703-11.968 18.724-8.585 21.324-16.65 42.908-24.716 64.493-2.861 7.801-5.203 15.863-8.325 23.664-1.821 4.681-3.642 9.102-6.244 13.263-5.984 9.622-14.31 15.343-26.017 14.043-10.666-1.3-17.951-7.802-21.333-17.684-2.862-7.801-4.683-16.123-5.464-24.445-1.82-15.863-2.862-31.986-3.902-48.109-1.561-12.222-3.122-23.665-8.065-37.447zM1046.748-6.055c8.026-6.555 10.097-14.946 12.428-22.813 7.508-24.386 11.133-49.559 11.91-74.732.517-16.782-1.036-33.826-2.072-50.608-1.812-29.368-5.696-58.999-1.812-88.63.518-3.408.518-7.08 1.294-10.488 2.072-11.8 6.732-17.568 14.5-18.093 9.061-.524 13.722 5.769 17.087 13.111 2.59 5.769 4.92 11.538 6.732 17.83 7.767 29.107 16.312 58.213 23.043 87.581 5.178 22.551 8.026 45.626 11.392 68.701 5.178 35.4-2.33 68.701-18.9 99.905-7.509 14.422-17.865 26.746-31.328 36.186-24.08 16.782-49.711 17.044-74.049.787-18.383-12.587-31.328-29.893-40.649-49.822-13.722-29.63-21.49-60.834-25.632-93.087-3.625-26.746-2.59-53.492.518-79.976 3.107-25.697 7.508-51.395 11.65-77.092.778-5.506 2.849-11.013 5.438-15.733 5.955-10.489 20.195-10.489 25.114.787 3.884 8.915 6.214 18.617 7.25 28.32 2.071 20.19 2.848 40.643 4.401 61.096 2.59 30.155 4.92 60.31 8.285 90.203 2.072 17.568 6.991 34.35 13.723 50.87 5.178 11.537 7.508 14.684 19.677 25.697zm293.605-2.884c3.883-9.178 6.99-15.471 9.58-22.027 24.855-64.243 33.399-130.584 25.114-199.023a285.7 285.7 0 0 1-1.554-20.977c-.259-4.195 0-8.39.777-12.586 2.589-11.538 11.91-17.569 23.56-15.209 10.098 2.098 17.348 8.653 23.562 16.52 6.99 9.177 10.874 19.666 13.204 30.68 2.848 13.634 5.437 27.532 6.732 41.692 4.142 44.314 1.812 88.63-5.955 132.42-4.143 23.075-13.464 44.314-27.963 62.932-10.097 12.848-22.266 22.812-37.8 29.106-15.535 6.03-30.034 4.457-43.497-4.982-17.348-11.8-29.257-27.795-37.025-47.2-6.214-15.733-9.58-32.252-11.91-49.034-5.178-38.546-5.955-77.092-3.365-115.9 1.812-25.173 4.66-50.346 7.508-75.519.777-6.293 2.071-12.586 4.143-18.355 1.035-2.622 4.919-5.507 7.508-5.507 2.59 0 6.99 2.623 8.026 4.983 2.33 7.08 4.66 14.946 4.92 22.288 1.035 23.862.776 47.724 1.553 71.848.777 30.155 1.036 60.572 3.107 90.727 1.036 16.782 4.66 33.564 8.544 49.821 2.071 8.653 7.25 16.52 11.65 24.386 1.037 2.622 4.143 4.458 9.58 8.916zm-105.895-110.394c.518 42.217 1.554 94.136-3.625 146.055-.776 6.818-1.553 14.16-4.142 20.453-6.99 17.044-27.963 19.404-38.578 4.458-3.884-5.507-6.732-12.324-8.285-19.142-4.143-17.83-8.285-35.662-10.874-53.755-6.732-46.674-9.321-93.611-6.473-140.81 2.848-51.92 5.696-103.838 13.722-155.233 1.295-7.604 2.848-15.209 5.178-22.55 3.366-9.44 10.616-14.685 18.642-14.16 8.544.524 14.758 5.506 17.088 13.11 3.625 12.063 6.473 24.387 8.285 36.973 2.33 16.782 3.625 33.564 4.402 50.346 1.553 41.43 2.848 82.86 4.66 134.255zm-618.02-25.96c-3.366 51.92-6.473 98.07-9.062 144.482-1.035 15.996-.776 32.253-1.294 48.51-.26 7.08-.26 14.16-1.813 20.978-2.589 11.537-15.016 16.257-24.596 9.44-4.92-3.41-9.062-8.916-11.392-14.422-2.848-6.293-4.402-13.373-5.178-20.453-7.509-61.621-12.687-122.98-4.92-184.863 3.107-25.173 8.027-50.084 16.57-73.946 2.33-6.555 5.179-13.11 9.062-18.617 9.062-12.324 24.597-9.964 28.998 4.458 2.33 7.342 3.107 15.208 3.366 22.813.518 22.026.26 44.577.26 61.62zm-42.72-329.869c1.553-17.044 8.544-32.777 22.266-45.101 8.027-7.08 17.606-11.275 28.48-11.275 18.383 0 33.141 13.635 34.953 32.252 1.813 20.715-8.544 39.07-26.926 47.986-4.402 2.098-8.803 4.196-12.687 6.818-18.124 13.373-46.345 1.31-46.086-27.533v-3.147z"/>
    <path d="M607.303-240.022c-3.909 9.44-3.648 18.618-4.43 27.795-4.43 46.938-7.816 94.138-13.288 140.813-3.648 32.778-9.64 65.556-14.852 98.071a2727.868 2727.868 0 0 1-10.943 66.605c-1.303 7.604-3.127 15.209-5.732 22.55-3.648 9.965-11.986 14.947-21.105 14.423-9.12-.524-16.676-6.556-19.02-16.782-1.825-8.13-3.127-16.782-3.127-25.173 0-66.08-1.043-132.422 5.21-198.502 3.127-33.04 6.515-65.818 9.38-98.858.261-4.196 0-8.129 0-13.898-8.076-1.573-15.372.787-22.668 2.098-29.442 5.769-58.885 11.8-88.588 17.307-10.162 1.835-20.845 2.36-31.267 2.884-4.169.262-8.338-.262-12.507-1.311-8.077-2.098-13.549-7.342-15.372-15.733-1.564-8.654 2.084-15.471 9.119-19.667 6.514-3.933 13.81-6.818 21.105-8.916 42.731-13.11 85.723-25.96 128.714-38.808 5.993-1.836 11.986-3.671 19.281-5.77 1.564-10.488 3.388-20.715 4.43-31.204 5.993-51.657 11.464-103.577 17.718-155.235 3.387-28.582 7.556-57.164 16.154-84.96 1.824-6.03 3.908-12.062 7.296-17.306 5.732-8.916 17.717-8.392 22.407.786 2.866 5.507 4.43 11.8 4.69 18.094a1371.028 1371.028 0 0 1 3.909 65.293c1.302 48.51.781 97.284-2.606 145.795-.782 11.8 0 23.862 0 37.236 3.908-.263 7.817-.263 11.465-1.05 171.184-41.168 342.89-78.141 514.857-113.541 91.194-18.88 182.91-33.827 275.407-45.102 57.062-7.08 113.602-15.472 170.664-22.29 79.208-9.44 158.417-18.617 237.887-26.746 36.217-3.671 72.695-4.72 108.651 2.36 6.254 1.311 12.507 2.622 17.979 5.244 16.415 7.867 18.76 26.485 4.69 37.76-5.993 4.72-13.028 8.13-20.063 11.014-22.147 9.177-45.337 14.684-68.787 18.355-46.379 7.08-92.757 13.374-139.136 20.454-69.048 10.488-138.355 21.24-207.402 32.253-146.432 23.338-292.865 47.2-439.557 70.275-152.686 23.862-305.11 49.822-457.014 79.453-4.69 1.05-9.12 2.623-13.55 3.934zm1154.42-90.167c-10.928-3.641-19.253-1.82-27.318.52-36.163 10.142-68.424 27.825-95.22 54.61-5.985 5.982-10.928 12.743-15.61 19.765-7.806 11.962-7.025 23.924 1.56 35.107 5.724 7.02 11.708 14.042 18.732 19.503 14.83 11.703 30.18 22.885 45.79 33.027 16.39 10.662 33.82 19.764 50.472 29.646 19.772 11.702 40.325 22.624 59.317 35.367 18.993 12.742 37.464 27.045 54.635 42.128 11.968 10.402 22.635 22.885 32.261 35.627 23.415 31.986 26.017 66.833 9.886 102.98-7.805 17.424-19.252 32.247-32.52 46.03-20.814 21.844-44.489 40.308-69.985 56.43-83.514 52.791-174.051 85.038-272.394 95.96-74.928 8.321-149.856 17.423-225.564 19.244-61.4 1.56-123.059 1.82-184.458 1.56-34.342-.26-68.164-5.461-100.945-16.123-8.585-2.86-17.17-5.721-25.496-9.622-6.244-2.86-12.488-6.762-17.431-11.442-19.513-18.204-16.13-47.33 7.285-60.072 6.504-3.641 14.309-6.242 21.593-7.282 33.302-4.42 66.343-9.882 99.904-11.442 122.278-5.721 243.776-17.423 365.013-34.847 41.367-5.981 82.473-14.563 123.58-22.624 36.943-7.282 73.887-14.823 110.83-23.145 31.48-7.021 61.66-18.724 90.018-33.807 11.707-6.24 22.894-13.522 32.78-22.104 18.212-15.863 18.993-26.265 3.903-44.469-8.065-9.622-16.91-18.724-26.537-26.525-15.87-12.483-32.26-24.445-49.171-35.627-22.375-14.563-45.27-27.826-67.904-41.348-26.276-15.863-52.033-32.767-74.928-53.57-10.146-9.363-20.292-19.505-28.358-30.687-25.236-34.587-25.496-71.774-1.56-107.401 4.943-7.542 10.666-14.823 17.17-21.064 41.887-39.788 91.319-63.713 148.555-70.734 10.147-1.3 21.074-.26 30.96 2.34 29.139 7.281 44.228 33.547 37.464 62.672-3.122 13.783-9.366 26.266-16.65 38.228-19.773 31.986-46.31 57.471-75.97 80.356-4.942 3.9-10.666 6.761-16.39 9.102-8.585 3.38-17.691-.52-21.333-8.062-3.382-7.021-2.082-15.863 4.943-20.544 22.634-15.083 37.984-36.927 54.114-57.731 8.066-10.402 14.05-22.365 20.293-34.067 2.862-4.681 3.122-9.882 4.683-15.863zM109.666 232.822c-36.423.52-72.847.26-108.75-6.241-12.227-2.34-24.715-5.461-36.163-10.142-8.325-3.12-15.61-8.842-22.634-14.563-6.504-5.461-10.147-13.263-11.708-21.844-2.341-13.523 5.464-25.485 18.992-28.086 5.464-1.04 11.188-.78 16.651-1.04 54.375-3.12 109.01-5.461 162.604-15.863 71.286-13.783 138.148-39.788 199.547-78.796 15.09-9.622 28.879-22.104 42.147-34.327 8.066-7.541 14.57-16.903 20.293-26.525 13.009-22.104 11.188-39.788-4.683-60.072-9.105-11.702-20.293-21.584-33.04-28.605-15.09-8.582-30.7-16.644-46.83-23.405-27.838-11.702-56.977-19.504-86.376-25.225-37.724-7.541-75.708-13.783-113.432-21.064-17.692-3.38-35.383-8.062-52.814-13.003-13.529-3.9-26.017-10.402-37.204-18.723-27.057-20.024-38.244-47.07-35.643-80.356 1.301-16.904 5.724-33.287 13.79-48.11 10.146-18.203 20.552-36.667 32.52-53.57 39.545-54.871 87.416-101.68 141.79-141.728 24.716-18.204 51.253-33.807 80.132-45.51 18.211-7.28 37.204-12.482 56.716-13.782 61.14-3.901 105.367 32.766 112.912 93.358 1.04 7.542 1.301 15.343 1.301 22.885 0 32.246-5.464 63.972-13.268 95.179-3.643 14.302-9.627 27.825-18.993 39.267-6.244 7.802-13.268 14.563-22.894 17.944-14.57 5.201-27.318-2.6-28.619-17.684-.52-4.68.26-9.882 1.041-14.562 5.724-35.367 7.285-70.995 7.545-106.622 0-11.182-.78-22.364-3.382-33.286-3.643-15.863-12.228-22.625-28.358-22.625-9.626 0-19.513 1.3-28.879 3.641-17.691 4.16-34.342 11.962-49.952 21.324C167.424-438.37 112.53-385.32 69.341-320.307c-4.943 7.541-9.106 15.603-13.268 23.924a81.42 81.42 0 0 0-6.244 15.604c-5.724 20.023-1.822 29.125 17.43 36.147 12.489 4.42 25.497 7.801 38.505 10.142 35.123 5.98 70.505 11.182 105.628 16.903 36.683 5.981 72.846 13.783 108.229 24.705 26.017 8.062 51.253 18.724 74.668 32.506 22.374 13.263 42.407 29.646 58.537 50.19 33.562 42.389 41.367 88.938 21.854 139.648-9.106 23.665-22.114 45.249-38.505 64.493-47.61 56.17-105.367 97.519-175.352 121.184-29.398 9.882-59.578 15.343-90.537 16.123-20.293.52-40.586 1.04-60.62 1.56zM818.36-154.394c-9.106 5.46-11.708 13.002-14.83 19.763-8.325 17.944-13.008 36.928-15.35 56.432a552.354 552.354 0 0 0-3.902 58.511c-.52 25.745.52 51.75.78 77.496 0 6.24 0 12.482-1.04 18.723-1.041 6.762-6.765 11.182-13.009 11.703-6.244.52-13.008-3.381-15.09-9.102-1.3-3.901-2.08-8.062-2.08-12.223-1.562-46.809-3.383-93.358-4.684-140.167-.52-17.424-.26-34.847 0-52.27.26-8.322-1.04-16.644 3.643-25.486 3.642-.52 7.545-1.04 12.228-1.56 1.04-1.3 2.341-2.86 3.382-4.681 3.902-6.501 7.284-13.783 12.228-19.504 5.723-6.761 12.227-13.523 19.772-18.464 16.65-10.662 36.684-7.541 48.911 7.802 5.984 7.281 9.887 16.643 13.79 25.485 2.6 5.981 4.162 12.743 6.764 22.104 3.902-8.061 6.504-13.782 9.366-18.983 6.764-12.223 12.748-24.965 20.553-36.408 5.463-8.061 12.227-15.343 20.032-21.324 19.513-15.603 43.708-13.002 59.579 6.241 5.983 7.542 11.187 16.384 14.049 25.486 4.943 15.083 9.105 30.946 11.707 46.549 5.724 35.107 8.065 70.734 7.285 106.36-.78 39.789 0 79.577 5.723 119.104 1.041 7.022 1.821 13.783 1.821 20.804-.26 16.904-12.748 24.965-28.618 18.984-10.406-3.9-17.431-11.182-23.155-20.284-6.244-10.402-9.886-21.584-11.707-33.286-8.846-51.75-15.35-103.5-15.61-156.031 0-22.365-1.04-44.73-1.821-67.094-.26-3.9 1.04-8.581-4.683-11.182-6.504 4.421-9.106 11.703-11.968 18.724-8.585 21.324-16.65 42.908-24.716 64.493-2.861 7.801-5.203 15.863-8.325 23.664-1.821 4.681-3.642 9.102-6.244 13.263-5.984 9.622-14.31 15.343-26.017 14.043-10.666-1.3-17.951-7.802-21.333-17.684-2.862-7.801-4.683-16.123-5.464-24.445-1.82-15.863-2.862-31.986-3.902-48.109-1.561-12.222-3.122-23.665-8.065-37.447zm326.388 197.339c8.026-6.555 10.097-14.946 12.428-22.813 7.508-24.386 11.133-49.559 11.91-74.732.517-16.782-1.036-33.826-2.072-50.608-1.812-29.368-5.696-58.999-1.812-88.63.518-3.408.518-7.08 1.294-10.488 2.072-11.8 6.732-17.568 14.5-18.093 9.061-.524 13.722 5.769 17.087 13.111 2.59 5.769 4.92 11.538 6.732 17.83 7.767 29.107 16.312 58.213 23.043 87.581 5.178 22.551 8.026 45.626 11.392 68.701 5.178 35.4-2.33 68.701-18.9 99.905-7.509 14.422-17.865 26.746-31.328 36.186-24.08 16.782-49.711 17.044-74.049.787-18.383-12.587-31.328-29.893-40.649-49.822-13.722-29.63-21.49-60.834-25.632-93.087-3.625-26.746-2.59-53.492.518-79.976 3.107-25.697 7.508-51.395 11.65-77.092.778-5.506 2.849-11.013 5.438-15.733 5.955-10.489 20.195-10.489 25.114.787 3.884 8.915 6.214 18.617 7.25 28.32 2.071 20.19 2.848 40.643 4.401 61.096 2.59 30.155 4.92 60.31 8.285 90.203 2.072 17.568 6.991 34.35 13.723 50.87 5.178 11.537 7.508 14.684 19.677 25.697zm293.605-2.884c3.883-9.178 6.99-15.471 9.58-22.027 24.855-64.243 33.399-130.584 25.114-199.023a285.7 285.7 0 0 1-1.554-20.977c-.259-4.195 0-8.39.777-12.586 2.589-11.538 11.91-17.569 23.56-15.209 10.098 2.098 17.348 8.653 23.562 16.52 6.99 9.177 10.874 19.666 13.204 30.68 2.848 13.634 5.437 27.532 6.732 41.692 4.142 44.314 1.812 88.63-5.955 132.42-4.143 23.075-13.464 44.314-27.963 62.932-10.097 12.848-22.266 22.812-37.8 29.106-15.535 6.03-30.034 4.457-43.497-4.982-17.348-11.8-29.257-27.795-37.025-47.2-6.214-15.733-9.58-32.252-11.91-49.034-5.178-38.546-5.955-77.092-3.365-115.9 1.812-25.173 4.66-50.346 7.508-75.519.777-6.293 2.071-12.586 4.143-18.355 1.035-2.622 4.919-5.507 7.508-5.507 2.59 0 6.99 2.623 8.026 4.983 2.33 7.08 4.66 14.946 4.92 22.288 1.035 23.862.776 47.724 1.553 71.848.777 30.155 1.036 60.572 3.107 90.727 1.036 16.782 4.66 33.564 8.544 49.821 2.071 8.653 7.25 16.52 11.65 24.386 1.037 2.622 4.143 4.458 9.58 8.916zM1332.458-70.333c.518 42.217 1.554 94.136-3.625 146.055-.776 6.818-1.553 14.16-4.142 20.453-6.99 17.044-27.963 19.404-38.578 4.458-3.884-5.507-6.732-12.324-8.285-19.142-4.143-17.83-8.285-35.662-10.874-53.755-6.732-46.674-9.321-93.611-6.473-140.81 2.848-51.92 5.696-103.838 13.722-155.233 1.295-7.604 2.848-15.209 5.178-22.55 3.366-9.44 10.616-14.685 18.642-14.16 8.544.524 14.758 5.506 17.088 13.11 3.625 12.063 6.473 24.387 8.285 36.973 2.33 16.782 3.625 33.564 4.402 50.346 1.553 41.43 2.848 82.86 4.66 134.255zm-618.02-25.96c-3.366 51.92-6.473 98.07-9.062 144.482-1.035 15.996-.776 32.253-1.294 48.51-.26 7.08-.26 14.16-1.813 20.978-2.589 11.537-15.016 16.257-24.596 9.44-4.92-3.41-9.062-8.916-11.392-14.422-2.848-6.293-4.402-13.373-5.178-20.453-7.509-61.621-12.687-122.98-4.92-184.863 3.107-25.173 8.027-50.084 16.57-73.946 2.33-6.555 5.179-13.11 9.062-18.617 9.062-12.324 24.597-9.964 28.998 4.458 2.33 7.342 3.107 15.208 3.366 22.813.518 22.026.26 44.577.26 61.62zm-42.72-329.869c1.553-17.044 8.544-32.777 22.266-45.101 8.027-7.08 17.606-11.275 28.48-11.275 18.383 0 33.141 13.635 34.953 32.252 1.813 20.715-8.544 39.07-26.926 47.986-4.402 2.098-8.803 4.196-12.687 6.818-18.124 13.373-46.345 1.31-46.086-27.533v-3.147z"/>
  </g>
</svg>
