<svg width="448" height="43" xmlns="http://www.w3.org/2000/svg">
  <g fill="none" fill-rule="evenodd">
    <path d="M239.955 24.05v.026H246v7.575h-8.853c-.696 0-1.758-.29-2.352-.644l-2.125-1.25c-.594-.353-1.58-.353-2.175 0l-2.757 1.616c-.595.34-.595.922 0 1.275l5.792 3.396c.594.353 1.657.644 2.352.644H246v5.05c0 .694-.57 1.262-1.265 1.262h-40.47A1.267 1.267 0 0 1 203 41.738v-5.05h10.118c.695 0 1.758-.29 2.352-.644l19.325-11.35c.594-.353 1.656-.643 2.352-.643h2.808zm0-12.389H246v7.648h-10.118c-.695 0-1.758.293-2.352.65l-19.325 11.459c-.594.357-1.656.65-2.352.65H203V24.42h10.118c.695 0 1.758-.293 2.352-.65l19.325-11.459c.594-.357 1.656-.65 2.352-.65h2.808zM244.735 0c.696 0 1.265.569 1.265 1.239v5.056h-10.118c-.695 0-1.758.291-2.352.645l-19.325 11.364c-.594.354-1.656.645-2.352.645H203v-7.585h8.853c.696 0 1.758.291 2.352.645l2.125 1.252c.594.354 1.58.354 2.175 0l2.757-1.618c.595-.342.595-.923 0-1.277l-5.792-3.4c-.594-.355-1.657-.645-2.352-.645H203V1.264C203 .57 203.57 0 204.265 0h40.47z" fill="#D8C6A6" fill-rule="nonzero"/>
    <path d="M292.6 8.5h22.832m10.168 0h70.963M279.6 21.5h130.354m10.66 0h26.034m-179.04 12h43.851m11.129 0h18.86m12.156 0h56.792M179.4 8.5h-22.832m-10.168 0H75.437m91.963 13H37.045m-9.659 0H1.352m155.04 12H112.54m-11.128 0h-18.86m-12.156 0H13.604" stroke="#D8C6A6" stroke-linecap="round" stroke-linejoin="round" stroke-width="2"/>
  </g>
</svg>
