<svg xmlns="http://www.w3.org/2000/svg" viewBox="0 0 800 362.4">
  <path d="M271 140.7c-1.5 3.6-1.4 7.1-1.7 10.6-1.7 17.9-3 35.9-5.1 53.7-1.4 12.5-3.7 25-5.7 37.4-1.3 8.5-2.7 17-4.2 25.4-.5 2.9-1.2 5.8-2.2 8.6-1.4 3.8-4.6 5.7-8.1 5.5-3.5-.2-6.4-2.5-7.3-6.4-.7-3.1-1.2-6.4-1.2-9.6 0-25.2-.4-50.5 2-75.7 1.2-12.6 2.5-25.1 3.6-37.7.1-1.6 0-3.1 0-5.3-3.1-.6-5.9.3-8.7.8-11.3 2.2-22.6 4.5-34 6.6-3.9.7-8 .9-12 1.1-1.6.1-3.2-.1-4.8-.5-3.1-.8-5.2-2.8-5.9-6-.6-3.3.8-5.9 3.5-7.5 2.5-1.5 5.3-2.6 8.1-3.4 16.4-5 32.9-9.9 49.4-14.8 2.3-.7 4.6-1.4 7.4-2.2.6-4 1.3-7.9 1.7-11.9 2.3-19.7 4.4-39.5 6.8-59.2 1.3-10.9 2.9-21.8 6.2-32.4.7-2.3 1.5-4.6 2.8-6.6 2.2-3.4 6.8-3.2 8.6.3 1.1 2.1 1.7 4.5 1.8 6.9.7 8.3 1.2 16.6 1.5 24.9.5 18.5.3 37.1-1 55.6-.3 4.5 0 9.1 0 14.2 1.5-.1 3-.1 4.4-.4C342.6 97 408.5 82.9 474.5 69.4c35-7.2 70.2-12.9 105.7-17.2 21.9-2.7 43.6-5.9 65.5-8.5 30.4-3.6 60.8-7.1 91.3-10.2 13.9-1.4 27.9-1.8 41.7.9 2.4.5 4.8 1 6.9 2 6.3 3 7.2 10.1 1.8 14.4-2.3 1.8-5 3.1-7.7 4.2-8.5 3.5-17.4 5.6-26.4 7-17.8 2.7-35.6 5.1-53.4 7.8-26.5 4-53.1 8.1-79.6 12.3-56.2 8.9-112.4 18-168.7 26.8-58.6 9.1-117.1 19-175.4 30.3-1.8.4-3.5 1-5.2 1.5z"/>
  <path d="M714.1 107.4c-4.2-1.4-7.4-.7-10.5.2-13.9 3.9-26.3 10.7-36.6 21-2.3 2.3-4.2 4.9-6 7.6-3 4.6-2.7 9.2.6 13.5 2.2 2.7 4.5 5.4 7.2 7.5 5.7 4.5 11.6 8.8 17.6 12.7 6.3 4.1 13 7.6 19.4 11.4 7.6 4.5 15.5 8.7 22.8 13.6 7.3 4.9 14.4 10.4 21 16.2 4.6 4 8.7 8.8 12.4 13.7 9 12.3 10 25.7 3.8 39.6-3 6.7-7.4 12.4-12.5 17.7-8 8.4-17.1 15.5-26.9 21.7-32.1 20.3-66.9 32.7-104.7 36.9-28.8 3.2-57.6 6.7-86.7 7.4-23.6.6-47.3.7-70.9.6-13.2-.1-26.2-2.1-38.8-6.2-3.3-1.1-6.6-2.2-9.8-3.7-2.4-1.1-4.8-2.6-6.7-4.4-7.5-7-6.2-18.2 2.8-23.1 2.5-1.4 5.5-2.4 8.3-2.8 12.8-1.7 25.5-3.8 38.4-4.4 47-2.2 93.7-6.7 140.3-13.4 15.9-2.3 31.7-5.6 47.5-8.7 14.2-2.8 28.4-5.7 42.6-8.9 12.1-2.7 23.7-7.2 34.6-13 4.5-2.4 8.8-5.2 12.6-8.5 7-6.1 7.3-10.1 1.5-17.1-3.1-3.7-6.5-7.2-10.2-10.2-6.1-4.8-12.4-9.4-18.9-13.7-8.6-5.6-17.4-10.7-26.1-15.9-10.1-6.1-20-12.6-28.8-20.6-3.9-3.6-7.8-7.5-10.9-11.8-9.7-13.3-9.8-27.6-.6-41.3 1.9-2.9 4.1-5.7 6.6-8.1 16.1-15.3 35.1-24.5 57.1-27.2 3.9-.5 8.1-.1 11.9.9 11.2 2.8 17 12.9 14.4 24.1-1.2 5.3-3.6 10.1-6.4 14.7-7.6 12.3-17.8 22.1-29.2 30.9-1.9 1.5-4.1 2.6-6.3 3.5-3.3 1.3-6.8-.2-8.2-3.1-1.3-2.7-.8-6.1 1.9-7.9 8.7-5.8 14.6-14.2 20.8-22.2 3.1-4 5.4-8.6 7.8-13.1 1.1-1.8 1.2-3.8 1.8-6.1zm-635 216.5c-14 .2-28 .1-41.8-2.4-4.7-.9-9.5-2.1-13.9-3.9-3.2-1.2-6-3.4-8.7-5.6-2.5-2.1-3.9-5.1-4.5-8.4-.9-5.2 2.1-9.8 7.3-10.8 2.1-.4 4.3-.3 6.4-.4 20.9-1.2 41.9-2.1 62.5-6.1 27.4-5.3 53.1-15.3 76.7-30.3 5.8-3.7 11.1-8.5 16.2-13.2 3.1-2.9 5.6-6.5 7.8-10.2 5-8.5 4.3-15.3-1.8-23.1-3.5-4.5-7.8-8.3-12.7-11-5.8-3.3-11.8-6.4-18-9-10.7-4.5-21.9-7.5-33.2-9.7-14.5-2.9-29.1-5.3-43.6-8.1-6.8-1.3-13.6-3.1-20.3-5-5.2-1.5-10-4-14.3-7.2-10.4-7.7-14.7-18.1-13.7-30.9.5-6.5 2.2-12.8 5.3-18.5 3.9-7 7.9-14.1 12.5-20.6C62.5 68.4 80.9 50.4 101.8 35c9.5-7 19.7-13 30.8-17.5 7-2.8 14.3-4.8 21.8-5.3 23.5-1.5 40.5 12.6 43.4 35.9.4 2.9.5 5.9.5 8.8 0 12.4-2.1 24.6-5.1 36.6-1.4 5.5-3.7 10.7-7.3 15.1-2.4 3-5.1 5.6-8.8 6.9-5.6 2-10.5-1-11-6.8-.2-1.8.1-3.8.4-5.6 2.2-13.6 2.8-27.3 2.9-41 0-4.3-.3-8.6-1.3-12.8-1.4-6.1-4.7-8.7-10.9-8.7-3.7 0-7.5.5-11.1 1.4-6.8 1.6-13.2 4.6-19.2 8.2-25.6 15.6-46.7 36-63.3 61-1.9 2.9-3.5 6-5.1 9.2-1 1.9-1.8 3.9-2.4 6-2.2 7.7-.7 11.2 6.7 13.9 4.8 1.7 9.8 3 14.8 3.9 13.5 2.3 27.1 4.3 40.6 6.5 14.1 2.3 28 5.3 41.6 9.5 10 3.1 19.7 7.2 28.7 12.5 8.6 5.1 16.3 11.4 22.5 19.3 12.9 16.3 15.9 34.2 8.4 53.7-3.5 9.1-8.5 17.4-14.8 24.8-18.3 21.6-40.5 37.5-67.4 46.6-11.3 3.8-22.9 5.9-34.8 6.2-7.8.2-15.6.4-23.3.6zM351.5 175c-3.5 2.1-4.5 5-5.7 7.6-3.2 6.9-5 14.2-5.9 21.7-.9 7.5-1.4 15-1.5 22.5-.2 9.9.2 19.9.3 29.8 0 2.4 0 4.8-.4 7.2-.4 2.6-2.6 4.3-5 4.5-2.4.2-5-1.3-5.8-3.5-.5-1.5-.8-3.1-.8-4.7-.6-18-1.3-35.9-1.8-53.9-.2-6.7-.1-13.4 0-20.1.1-3.2-.4-6.4 1.4-9.8 1.4-.2 2.9-.4 4.7-.6.4-.5.9-1.1 1.3-1.8 1.5-2.5 2.8-5.3 4.7-7.5 2.2-2.6 4.7-5.2 7.6-7.1 6.4-4.1 14.1-2.9 18.8 3 2.3 2.8 3.8 6.4 5.3 9.8 1 2.3 1.6 4.9 2.6 8.5 1.5-3.1 2.5-5.3 3.6-7.3 2.6-4.7 4.9-9.6 7.9-14 2.1-3.1 4.7-5.9 7.7-8.2 7.5-6 16.8-5 22.9 2.4 2.3 2.9 4.3 6.3 5.4 9.8 1.9 5.8 3.5 11.9 4.5 17.9 2.2 13.5 3.1 27.2 2.8 40.9-.3 15.3 0 30.6 2.2 45.8.4 2.7.7 5.3.7 8-.1 6.5-4.9 9.6-11 7.3-4-1.5-6.7-4.3-8.9-7.8-2.4-4-3.8-8.3-4.5-12.8-3.4-19.9-5.9-39.8-6-60 0-8.6-.4-17.2-.7-25.8-.1-1.5.4-3.3-1.8-4.3-2.5 1.7-3.5 4.5-4.6 7.2-3.3 8.2-6.4 16.5-9.5 24.8-1.1 3-2 6.1-3.2 9.1-.7 1.8-1.4 3.5-2.4 5.1-2.3 3.7-5.5 5.9-10 5.4-4.1-.5-6.9-3-8.2-6.8-1.1-3-1.8-6.2-2.1-9.4-.7-6.1-1.1-12.3-1.5-18.5-.6-4.7-1.2-9.1-3.1-14.4z"/>
  <path d="M475.2 251.3c3.1-2.5 3.9-5.7 4.8-8.7 2.9-9.3 4.3-18.9 4.6-28.5.2-6.4-.4-12.9-.8-19.3-.7-11.2-2.2-22.5-.7-33.8.2-1.3.2-2.7.5-4 .8-4.5 2.6-6.7 5.6-6.9 3.5-.2 5.3 2.2 6.6 5 1 2.2 1.9 4.4 2.6 6.8 3 11.1 6.3 22.2 8.9 33.4 2 8.6 3.1 17.4 4.4 26.2 2 13.5-.9 26.2-7.3 38.1-2.9 5.5-6.9 10.2-12.1 13.8-9.3 6.4-19.2 6.5-28.6.3-7.1-4.8-12.1-11.4-15.7-19-5.3-11.3-8.3-23.2-9.9-35.5-1.4-10.2-1-20.4.2-30.5 1.2-9.8 2.9-19.6 4.5-29.4.3-2.1 1.1-4.2 2.1-6 2.3-4 7.8-4 9.7.3 1.5 3.4 2.4 7.1 2.8 10.8.8 7.7 1.1 15.5 1.7 23.3 1 11.5 1.9 23 3.2 34.4.8 6.7 2.7 13.1 5.3 19.4 2 4.4 2.9 5.6 7.6 9.8zm113.4-1.1c1.5-3.5 2.7-5.9 3.7-8.4 9.6-24.5 12.9-49.8 9.7-75.9-.3-2.7-.5-5.3-.6-8-.1-1.6 0-3.2.3-4.8 1-4.4 4.6-6.7 9.1-5.8 3.9.8 6.7 3.3 9.1 6.3 2.7 3.5 4.2 7.5 5.1 11.7 1.1 5.2 2.1 10.5 2.6 15.9 1.6 16.9.7 33.8-2.3 50.5-1.6 8.8-5.2 16.9-10.8 24-3.9 4.9-8.6 8.7-14.6 11.1-6 2.3-11.6 1.7-16.8-1.9-6.7-4.5-11.3-10.6-14.3-18-2.4-6-3.7-12.3-4.6-18.7-2-14.7-2.3-29.4-1.3-44.2.7-9.6 1.8-19.2 2.9-28.8.3-2.4.8-4.8 1.6-7 .4-1 1.9-2.1 2.9-2.1s2.7 1 3.1 1.9c.9 2.7 1.8 5.7 1.9 8.5.4 9.1.3 18.2.6 27.4.3 11.5.4 23.1 1.2 34.6.4 6.4 1.8 12.8 3.3 19 .8 3.3 2.8 6.3 4.5 9.3.4 1 1.6 1.7 3.7 3.4zm-40.9-42.1c.2 16.1.6 35.9-1.4 55.7-.3 2.6-.6 5.4-1.6 7.8-2.7 6.5-10.8 7.4-14.9 1.7-1.5-2.1-2.6-4.7-3.2-7.3-1.6-6.8-3.2-13.6-4.2-20.5-2.6-17.8-3.6-35.7-2.5-53.7 1.1-19.8 2.2-39.6 5.3-59.2.5-2.9 1.1-5.8 2-8.6 1.3-3.6 4.1-5.6 7.2-5.4 3.3.2 5.7 2.1 6.6 5 1.4 4.6 2.5 9.3 3.2 14.1.9 6.4 1.4 12.8 1.7 19.2.6 15.8 1.1 31.6 1.8 51.2zM309 198.2c-1.3 19.8-2.5 37.4-3.5 55.1-.4 6.1-.3 12.3-.5 18.5-.1 2.7-.1 5.4-.7 8-1 4.4-5.8 6.2-9.5 3.6-1.9-1.3-3.5-3.4-4.4-5.5-1.1-2.4-1.7-5.1-2-7.8-2.9-23.5-4.9-46.9-1.9-70.5 1.2-9.6 3.1-19.1 6.4-28.2.9-2.5 2-5 3.5-7.1 3.5-4.7 9.5-3.8 11.2 1.7.9 2.8 1.2 5.8 1.3 8.7.2 8.4.1 17 .1 23.5zM292.5 72.4c.6-6.5 3.3-12.5 8.6-17.2 3.1-2.7 6.8-4.3 11-4.3 7.1 0 12.8 5.2 13.5 12.3.7 7.9-3.3 14.9-10.4 18.3-1.7.8-3.4 1.6-4.9 2.6-7 5.1-17.9.5-17.8-10.5v-1.2z"/>
</svg>
